<svg width="347" height="34" viewBox="0 0 347 34" fill="none" xmlns="http://www.w3.org/2000/svg">
    <path d="M20.1992 13.3242C20.1992 15.056 20.0234 16.7096 19.6719 18.2852C19.3333 19.8607 18.7669 21.2539 17.9727 22.4648C17.1914 23.6758 16.1758 24.6458 14.9258 25.375C13.6888 26.0911 12.1784 26.4492 10.3945 26.4492C8.61068 26.4492 7.10026 26.0846 5.86328 25.3555C4.6263 24.6133 3.61068 23.6367 2.81641 22.4258C2.03516 21.2148 1.46875 19.8151 1.11719 18.2266C0.778646 16.638 0.609375 14.9909 0.609375 13.2852C0.609375 11.5794 0.778646 9.93229 1.11719 8.34375C1.46875 6.75521 2.03516 5.34896 2.81641 4.125C3.61068 2.90104 4.6263 1.92448 5.86328 1.19531C7.10026 0.453125 8.61068 0.0820312 10.3945 0.0820312C10.9023 0.0820312 11.4232 0.153646 11.957 0.296875C12.4909 0.440104 12.9987 0.661458 13.4805 0.960938C13.9622 1.2474 14.3854 1.60547 14.75 2.03516C15.1276 2.46484 15.3945 2.95964 15.5508 3.51953V0.511719H19.2031V9.55469H15.5508C15.5508 8.76042 15.4271 8.01172 15.1797 7.30859C14.9323 6.59245 14.5807 5.96745 14.125 5.43359C13.6693 4.89974 13.1224 4.48307 12.4844 4.18359C11.8464 3.87109 11.1497 3.71484 10.3945 3.71484C9.2487 3.71484 8.3112 4.0013 7.58203 4.57422C6.85286 5.14714 6.26693 5.88932 5.82422 6.80078C5.38151 7.71224 5.06901 8.73438 4.88672 9.86719C4.71745 11 4.63281 12.1393 4.63281 13.2852C4.63281 14.431 4.71745 15.5703 4.88672 16.7031C5.06901 17.8359 5.375 18.8581 5.80469 19.7695C6.23438 20.668 6.82031 21.3971 7.5625 21.957C8.30469 22.5169 9.2487 22.7969 10.3945 22.7969C12.0482 22.7969 13.3828 22.2695 14.3984 21.2148C15.4141 20.1602 16.1107 18.526 16.4883 16.3125H11.1172V12.6797H20.1992V13.3242ZM48.082 26H31.793V0.511719H48.082V4.16406H35.8359V11.1953H45.3867V14.8477H35.8359V22.3672H48.082V26ZM60.6719 18.4805V14.8477H78.875V18.4805H60.6719ZM109.707 13.3242C109.707 15.056 109.531 16.7096 109.18 18.2852C108.841 19.8607 108.275 21.2539 107.48 22.4648C106.699 23.6758 105.684 24.6458 104.434 25.375C103.197 26.0911 101.686 26.4492 99.9023 26.4492C98.1185 26.4492 96.6081 26.0846 95.3711 25.3555C94.1341 24.6133 93.1185 23.6367 92.3242 22.4258C91.543 21.2148 90.9766 19.8151 90.625 18.2266C90.2865 16.638 90.1172 14.9909 90.1172 13.2852C90.1172 11.5794 90.2865 9.93229 90.625 8.34375C90.9766 6.75521 91.543 5.34896 92.3242 4.125C93.1185 2.90104 94.1341 1.92448 95.3711 1.19531C96.6081 0.453125 98.1185 0.0820312 99.9023 0.0820312C100.41 0.0820312 100.931 0.153646 101.465 0.296875C101.999 0.440104 102.507 0.661458 102.988 0.960938C103.47 1.2474 103.893 1.60547 104.258 2.03516C104.635 2.46484 104.902 2.95964 105.059 3.51953V0.511719H108.711V9.55469H105.059C105.059 8.76042 104.935 8.01172 104.688 7.30859C104.44 6.59245 104.089 5.96745 103.633 5.43359C103.177 4.89974 102.63 4.48307 101.992 4.18359C101.354 3.87109 100.658 3.71484 99.9023 3.71484C98.7565 3.71484 97.819 4.0013 97.0898 4.57422C96.3607 5.14714 95.7747 5.88932 95.332 6.80078C94.8893 7.71224 94.5768 8.73438 94.3945 9.86719C94.2253 11 94.1406 12.1393 94.1406 13.2852C94.1406 14.431 94.2253 15.5703 94.3945 16.7031C94.5768 17.8359 94.8828 18.8581 95.3125 19.7695C95.7422 20.668 96.3281 21.3971 97.0703 21.957C97.8125 22.5169 98.7565 22.7969 99.9023 22.7969C101.556 22.7969 102.891 22.2695 103.906 21.2148C104.922 20.1602 105.618 18.526 105.996 16.3125H100.625V12.6797H109.707V13.3242ZM138.098 12.1133C137.616 11.8789 137.121 11.7031 136.613 11.5859C136.118 11.4557 135.546 11.3906 134.895 11.3906C133.996 11.3906 133.15 11.5273 132.355 11.8008C131.574 12.0612 130.897 12.4583 130.324 12.9922C129.751 13.526 129.302 14.1966 128.977 15.0039C128.664 15.7982 128.508 16.7422 128.508 17.8359V22.3672H132.59V26H120.344V22.3672H124.465V11.4492H120.344V7.79688H128.508V12.3672C129.172 10.5443 130.148 9.25521 131.438 8.5C132.74 7.74479 134.283 7.36719 136.066 7.36719C136.626 7.36719 137.212 7.42578 137.824 7.54297C138.436 7.66016 139.035 7.86849 139.621 8.16797L138.098 12.1133ZM168.852 16.918C168.852 18.3372 168.624 19.6263 168.168 20.7852C167.725 21.944 167.081 22.9466 166.234 23.793C165.401 24.6263 164.398 25.2773 163.227 25.7461C162.055 26.2148 160.746 26.4492 159.301 26.4492C157.882 26.4492 156.586 26.2148 155.414 25.7461C154.242 25.2773 153.233 24.6263 152.387 23.793C151.553 22.9466 150.909 21.944 150.453 20.7852C150.01 19.6263 149.789 18.3372 149.789 16.918C149.789 15.5378 150.01 14.2617 150.453 13.0898C150.909 11.9049 151.553 10.8893 152.387 10.043C153.233 9.18359 154.242 8.52604 155.414 8.07031C156.586 7.60156 157.882 7.36719 159.301 7.36719C160.746 7.36719 162.055 7.60156 163.227 8.07031C164.398 8.52604 165.401 9.18359 166.234 10.043C167.081 10.8893 167.725 11.9049 168.168 13.0898C168.624 14.2617 168.852 15.5378 168.852 16.918ZM164.828 16.918C164.828 16.0977 164.698 15.3229 164.438 14.5938C164.19 13.8516 163.826 13.2201 163.344 12.6992C162.862 12.1784 162.276 11.7682 161.586 11.4688C160.909 11.1562 160.147 11 159.301 11C158.441 11 157.673 11.1562 156.996 11.4688C156.319 11.7682 155.746 12.1784 155.277 12.6992C154.809 13.2201 154.444 13.8516 154.184 14.5938C153.936 15.3229 153.812 16.0977 153.812 16.918C153.812 17.7773 153.936 18.5586 154.184 19.2617C154.444 19.9648 154.809 20.5833 155.277 21.1172C155.746 21.651 156.319 22.0677 156.996 22.3672C157.673 22.6536 158.441 22.7969 159.301 22.7969C160.147 22.7969 160.909 22.6536 161.586 22.3672C162.276 22.0677 162.862 21.651 163.344 21.1172C163.826 20.5833 164.19 19.9648 164.438 19.2617C164.698 18.5586 164.828 17.7773 164.828 16.918ZM180.973 7.79688H185.016V19.0469C185.016 20.4531 185.283 21.4297 185.816 21.9766C186.35 22.5234 187.125 22.7969 188.141 22.7969C189.625 22.7969 190.842 22.1914 191.793 20.9805C192.743 19.7695 193.219 18.0964 193.219 15.9609V7.79688H197.262V26H193.219V21.4492C192.815 23.0117 192.066 24.2357 190.973 25.1211C189.879 26.0065 188.531 26.4492 186.93 26.4492C185.068 26.4492 183.609 25.8438 182.555 24.6328C181.5 23.4089 180.973 21.5469 180.973 19.0469V7.79688ZM210.809 7.79688H214.852V9.4375C215.62 8.7474 216.395 8.23307 217.176 7.89453C217.97 7.54297 218.875 7.36719 219.891 7.36719C221.062 7.36719 222.15 7.60807 223.152 8.08984C224.155 8.55859 225.014 9.21615 225.73 10.0625C226.447 10.8958 227.013 11.9049 227.43 13.0898C227.846 14.2617 228.055 15.5378 228.055 16.918C228.055 18.3112 227.846 19.5938 227.43 20.7656C227.013 21.9375 226.447 22.9466 225.73 23.793C225.014 24.6263 224.155 25.2773 223.152 25.7461C222.15 26.2148 221.062 26.4492 219.891 26.4492C218.875 26.4492 217.97 26.2669 217.176 25.9023C216.395 25.5378 215.62 25.0104 214.852 24.3203V33.2852H210.809V7.79688ZM214.852 21.1172C215.333 21.651 215.945 22.0677 216.688 22.3672C217.443 22.6536 218.165 22.7969 218.855 22.7969C220.379 22.7969 221.616 22.2565 222.566 21.1758C223.53 20.0951 224.012 18.6758 224.012 16.918C224.012 15.1602 223.53 13.7344 222.566 12.6406C221.616 11.5469 220.379 11 218.855 11C218.165 11 217.443 11.1432 216.688 11.4297C215.945 11.7031 215.333 12.1068 214.852 12.6406V21.1172ZM286.77 26H270.48V0.511719H274.523V22.3672H286.77V26ZM317.758 20.1992C317.549 22.1133 316.794 23.6367 315.492 24.7695C314.203 25.8893 312.589 26.4492 310.648 26.4492C309.581 26.4492 308.604 26.2734 307.719 25.9219C306.833 25.5703 306.078 25.082 305.453 24.457C304.828 23.832 304.34 23.0833 303.988 22.2109C303.65 21.3255 303.48 20.362 303.48 19.3203V11.4492H299.359V7.79688H303.48V0.511719H307.523V7.79688H315.16V11.4492H307.523V19.3203C307.523 20.4922 307.81 21.3646 308.383 21.9375C308.956 22.5104 309.711 22.7969 310.648 22.7969C311.794 22.7969 312.647 22.4648 313.207 21.8008C313.767 21.1367 314.099 20.3359 314.203 19.3984L317.758 20.1992ZM346.441 26H342.398V24.3203C341.617 25.0104 340.829 25.5378 340.035 25.9023C339.241 26.2669 338.336 26.4492 337.32 26.4492C336.148 26.4492 335.061 26.2148 334.059 25.7461C333.056 25.2773 332.19 24.6263 331.461 23.793C330.745 22.9466 330.178 21.9375 329.762 20.7656C329.358 19.5938 329.156 18.3112 329.156 16.918C329.156 15.5378 329.358 14.2617 329.762 13.0898C330.178 11.9049 330.745 10.8958 331.461 10.0625C332.19 9.21615 333.056 8.55859 334.059 8.08984C335.061 7.60807 336.148 7.36719 337.32 7.36719C338.336 7.36719 339.241 7.54297 340.035 7.89453C340.829 8.23307 341.617 8.7474 342.398 9.4375V4.16406H338.883V0.511719H346.441V26ZM342.398 12.6406C341.917 12.1068 341.292 11.7031 340.523 11.4297C339.768 11.1432 339.046 11 338.355 11C336.832 11 335.589 11.5469 334.625 12.6406C333.674 13.7344 333.199 15.1602 333.199 16.918C333.199 18.6758 333.674 20.0951 334.625 21.1758C335.589 22.2565 336.832 22.7969 338.355 22.7969C339.046 22.7969 339.768 22.6602 340.523 22.3867C341.292 22.1003 341.917 21.6901 342.398 21.1562V12.6406Z" fill="#660000"/>
</svg>
